<?xml version="1.0" encoding="utf-8"?>
<!-- Generator: Adobe Illustrator 17.0.0, SVG Export Plug-In . SVG Version: 6.00 Build 0)  -->
<!DOCTYPE svg PUBLIC "-//W3C//DTD SVG 1.1//EN" "http://www.w3.org/Graphics/SVG/1.1/DTD/svg11.dtd">
<svg version="1.1" id="Livello_1" xmlns="http://www.w3.org/2000/svg" xmlns:xlink="http://www.w3.org/1999/xlink" x="0px" y="0px"
	 width="658.333px" height="606.667px" viewBox="0 0 658.333 606.667" enable-background="new 0 0 658.333 606.667"
	 xml:space="preserve">
<g>
	<defs>
		<path id="SVGID_1_" d="M594.613,353.975c0,0-135.813,0,24.76,0c37.137,0,30.6-16.2,30.6-16.2l-5-110c0,0,6.455,16.2-30.8,16.2
			c-160.728,0-24.56,0-24.56,0L594.613,353.975L594.613,353.975z"/>
	</defs>
	<clipPath id="SVGID_2_">
		<use xlink:href="#SVGID_1_"  overflow="visible"/>
	</clipPath>
	<g clip-path="url(#SVGID_2_)">
		
			<image overflow="visible" width="1300" height="670" xlink:href="16599D160763BAF0.jpg"  transform="matrix(1 0 0 1 -33.0267 -22.2126)">
		</image>
	</g>
</g>
<g>
	<defs>
		<path id="SVGID_3_" d="M127.473,313.787c0,0-24.557,0-51.5,0c-32.74,0-69-10-69-10l75,65l-75,49c0,0,35.528,10,68,10
			c27.332,0,52.5,0,52.5,0V313.787L127.473,313.787z"/>
	</defs>
	<clipPath id="SVGID_4_">
		<use xlink:href="#SVGID_3_"  overflow="visible"/>
	</clipPath>
	<g clip-path="url(#SVGID_4_)">
		
			<image overflow="visible" width="1300" height="670" xlink:href="16599D160763BAF1.jpg"  transform="matrix(1 0 0 1 -33.0267 -22.2126)">
		</image>
	</g>
</g>
<g>
	<defs>
		<path id="SVGID_5_" d="M157.113,416.975c0,0,135.815,0-24.76,0c-37.135,0-31.598-15.2-31.598-15.2l-18-107
			c0,0-6.455,16.2,30.8,16.2c160.725,0,24.557,0,24.557,0L157.113,416.975L157.113,416.975z"/>
	</defs>
	<clipPath id="SVGID_6_">
		<use xlink:href="#SVGID_5_"  overflow="visible"/>
	</clipPath>
	<g clip-path="url(#SVGID_6_)">
		
			<image overflow="visible" width="1300" height="670" xlink:href="16599D160763BAF7.jpg"  transform="matrix(1 0 0 1 -33.0267 -22.2126)">
		</image>
	</g>
</g>
<g>
	<defs>
		<path id="SVGID_7_" d="M333.878,7.53c59.198-3.125,101.658,37.56,142.612,54.577c39.01,16.213,132.408,39.55,156.358,94.988
			c12.385,28.665,0.802,82.57,1.558,136.7c0.707,50.55,27.82,101.878-1.18,154.877c-13.11,23.958-42.93,31.2-61.02,53.305
			c-21.93,26.793-32.727,66.978-54.053,76.678c-38.917,17.705-73.385-3.235-124.55-4.078c-51.162-0.845-73.65,30.65-105.81,19.255
			c-32.16-11.392-36.595-38.885-50.595-48.885c-14-10-61.187-13.47-84.073-30.988c-22.885-17.518-7.037-40.01-7.037-40.01
			c0,0-24.98,7.455-35.135-19.487c-9.025-23.94,3.538-26.54-1.462-87.54c-5-61-39.998-90.378-22.757-155.03
			c17.242-64.655,85.252-89.792,122.812-120.84C245.521,61.315,274.683,10.657,333.878,7.53L333.878,7.53z"/>
	</defs>
	<clipPath id="SVGID_8_">
		<use xlink:href="#SVGID_7_"  overflow="visible"/>
	</clipPath>
	<g clip-path="url(#SVGID_8_)">
		
			<image overflow="visible" width="1300" height="670" xlink:href="16599D160763BAF2.jpg"  transform="matrix(1 0 0 1 -33.0267 -22.2126)">
		</image>
	</g>
</g>
<g>
	<defs>
		<path id="SVGID_9_" d="M289.463,589.12c-19.17-6.79-27.652-19.745-35.137-31.177c-4.367-6.67-8.495-12.973-14.223-17.062
			c-6.72-4.802-18.975-7.948-33.165-11.588c-18.02-4.625-38.445-9.865-50.773-19.302c-3.825-2.927-6.632-6.178-8.342-9.658
			c-1.38-2.808-2.08-5.838-2.08-9.007c0-7.888,4.285-14.28,4.44-14.508c-0.003,0.005-0.008,0.013-0.008,0.013
			c0.002-0.005,0.008-0.008,0.01-0.013v-0.003c0.595-0.858,0.892-1.855,0.892-2.85c0-1.025-0.315-2.05-0.942-2.925
			c-0.955-1.33-2.483-2.085-4.067-2.085c-0.47,0-0.942,0.065-1.408,0.203l0.025-0.008c-0.027,0.008-2.64,0.745-6.31,0.745
			c-4.413,0-8.385-1.018-11.808-3.025c-4.765-2.795-8.445-7.562-10.938-14.17c-2.13-5.655-3.04-10.167-3.04-15.092
			c0-3.6,0.458-7.323,1.04-12.035c0.927-7.532,2.082-16.905,2.082-31.25c0-8.542-0.405-17.638-1.24-27.807
			c-1.99-24.305-8.517-43.403-14.827-61.875c-6.505-19.038-12.648-37.02-12.648-58.465c0-10.677,1.493-21.47,4.565-32.995
			c2.912-10.918,7.362-20.938,13.605-30.638c5.54-8.605,12.34-16.71,20.795-24.778c15.78-15.06,34.215-27.008,52.04-38.56
			c12.692-8.225,24.682-15.995,34.727-24.297c9.658-7.983,18.565-17.165,27.998-26.883c25.428-26.205,51.72-53.3,93.415-55.503
			c2.042-0.108,4.125-0.162,6.187-0.162c8.865,0,17.55,0.98,26.548,2.995c8.003,1.79,16.042,4.36,24.575,7.852
			c15.938,6.523,30.727,15.125,45.03,23.445c13.14,7.645,25.553,14.862,38.09,20.073c7.078,2.943,15.67,6.025,25.62,9.595
			c22.195,7.968,49.82,17.88,74.155,31.355c13.04,7.22,24.025,14.89,32.652,22.798c4.768,4.367,8.943,8.922,12.41,13.538
			c3.648,4.855,6.625,9.925,8.848,15.067c3.645,8.438,5.342,20.078,5.342,36.637c0,12.433-0.938,26.318-1.927,41.02
			c-1.133,16.772-2.303,34.115-2.303,51.847c0,1.895,0.013,3.623,0.035,5.285c0.23,16.465,3.215,33.133,6.102,49.25
			c2.99,16.71,6.085,33.987,6.085,50.967c0,9.345-0.91,17.862-2.785,26.04c-2.103,9.18-5.365,17.733-9.97,26.148
			c-6.628,12.115-18.225,19.778-30.505,27.89c-10.517,6.95-21.395,14.138-29.998,24.647c-9.18,11.215-16.27,24.325-23.125,37.003
			c-9.238,17.08-17.965,33.212-29.128,38.29c-9.955,4.53-20.06,6.64-31.797,6.64c-12.307,0-25.165-2.365-38.778-4.87
			c-15.225-2.803-32.48-5.978-51.822-6.295c-0.01,0-2.105-0.018-2.105-0.018c-11.015,0-21.703,1.435-32.673,4.39
			c-9.51,2.56-18.04,5.94-25.565,8.922c-11.435,4.533-21.31,8.448-31.285,8.448C297.761,591.32,293.641,590.6,289.463,589.12"/>
	</defs>
	<clipPath id="SVGID_10_">
		<use xlink:href="#SVGID_9_"  overflow="visible"/>
	</clipPath>
	<g clip-path="url(#SVGID_10_)">
		
			<image overflow="visible" width="1300" height="670" xlink:href="16599D160763BAF3.jpg"  transform="matrix(1 0 0 1 -33.0267 -22.2126)">
		</image>
	</g>
</g>
<g>
	<defs>
		<path id="SVGID_11_" d="M609.328,363.077c-7.16,31.195-20.137,60.367-38.575,86.7c-18.437,26.332-41.41,48.503-68.277,65.902
			c-27.822,18.018-58.615,30.095-91.518,35.898c-32.907,5.802-65.97,4.983-98.278-2.432c-31.197-7.16-60.367-20.138-86.7-38.575
			c-26.33-18.44-48.502-41.413-65.902-68.278c-18.017-27.822-30.095-58.615-35.898-91.517c-5.8-32.905-4.982-65.973,2.433-98.277
			c7.16-31.197,20.14-60.367,38.575-86.7c18.44-26.33,41.41-48.502,68.277-65.902c27.823-18.018,58.613-30.095,91.518-35.898
			s65.97-4.985,98.278,2.433c31.198,7.16,60.37,20.14,86.7,38.575c26.332,18.44,48.505,41.41,65.902,68.277
			c18.017,27.822,30.095,58.612,35.898,91.52C617.563,297.705,616.743,330.77,609.328,363.077L609.328,363.077z M597.646,267.29
			C575.281,140.445,454.321,55.747,327.473,78.112C200.628,100.48,115.931,221.44,138.298,348.285
			c22.365,126.845,143.325,211.542,270.17,189.177C535.316,515.095,620.011,394.132,597.646,267.29L597.646,267.29z
			 M406.453,524.037c-119.462,21.065-233.385-58.705-254.45-178.17c-21.065-119.462,58.705-233.385,178.167-254.45
			c119.465-21.065,233.387,58.705,254.452,178.167C605.688,389.05,525.918,502.972,406.453,524.037L406.453,524.037z"/>
	</defs>
	<clipPath id="SVGID_12_">
		<use xlink:href="#SVGID_11_"  overflow="visible"/>
	</clipPath>
	<g clip-path="url(#SVGID_12_)">
		
			<image overflow="visible" width="1300" height="670" xlink:href="16599D160763BAFE.jpg"  transform="matrix(1 0 0 1 -33.0267 -22.2126)">
		</image>
	</g>
</g>
<g>
	<defs>
		<path id="SVGID_13_" d="M534.853,419.46c-9.16,13.08-27.195,16.26-40.28,7.102c-0.308-0.215-0.603-0.435-0.898-0.662l-0.012,0.025
			c0,0-55.968-39.188-108.785-76.17l11.23-16.04l75.038,52.547c4.212,2.94,10.022,1.92,12.967-2.288
			c2.945-4.22,1.927-10.023-2.285-12.97l-75.04-52.543l11.267-16.095c53.055,37.15,108.783,76.173,108.783,76.173l-0.015,0.022
			c0.308,0.198,0.623,0.398,0.927,0.618C540.833,388.34,544.013,406.375,534.853,419.46L534.853,419.46z M527.923,399.605
			c-1.592-9.033-10.207-15.065-19.242-13.473c-9.033,1.593-15.065,10.208-13.473,19.243c1.593,9.032,10.208,15.065,19.242,13.472
			C523.483,417.255,529.516,408.64,527.923,399.605L527.923,399.605z M494.503,158.26l-4.895,6.993l-0.025-0.017
			c0.687-3.055-4.41-9.35-12.15-14.77c-7.737-5.42-15.395-8.052-18.032-6.365l-0.243-0.17l5.35-7.642l0.11,0.077
			c1.965-2.555,10.22,0.06,18.557,5.898c8.415,5.893,13.722,12.833,11.853,15.502C494.891,157.96,494.708,158.12,494.503,158.26
			L494.503,158.26z M488.186,173.282l0.14,0.098l-0.205,0.29c-0.072,0.285-0.177,0.555-0.34,0.788s-0.38,0.422-0.623,0.59
			l-20.91,29.86l-1.255-0.898c-1.402-4.102-6.545-10.115-13.707-15.552c-8.315-6.315-16.652-9.805-20.525-8.905l-0.677-0.483
			l21.835-31.185l0.4,0.28c3.378-1.695,12.287,1.455,21.293,7.76C482.616,162.232,488.623,169.532,488.186,173.282L488.186,173.282z
			 M287.983,400.542c-5.868-2.587-10.573-3.182-12.02-1.115c-0.002,0.005-0.005,0.013-0.008,0.018l-0.122-0.085l147.627-210.84
			c0.135-0.03,0.28-0.137,0.428-0.35c1.447-2.067,6.153-1.47,12.017,1.115L287.983,400.542L287.983,400.542z M354.851,195.257
			l-7.247-5.078l-5.078,7.25l-6.81-4.77l5.075-7.25l-7.25-5.075l4.77-6.812l7.25,5.075l5.075-7.247l6.812,4.77l-5.075,7.247
			l7.247,5.075L354.851,195.257L354.851,195.257z M349.463,164.705l-7.247-5.077l-5.078,7.25l-6.81-4.77l5.075-7.25l-7.25-5.075
			l4.77-6.813l7.25,5.075l5.075-7.248l6.813,4.77l-5.075,7.248l7.25,5.077L349.463,164.705L349.463,164.705z M344.028,133.875
			l-7.25-5.075l-5.075,7.25l-6.812-4.77l5.075-7.25l-7.247-5.075l4.77-6.813l7.25,5.075l5.075-7.25l6.813,4.772l-5.075,7.248
			l7.247,5.077L344.028,133.875L344.028,133.875z M355.763,258.75l-11.272,16.095l-21.645-15.155
			c-4.21-2.953-10.012-1.925-12.965,2.285c-2.94,4.208-1.922,10.013,2.29,12.963l21.645,15.157l-11.232,16.04
			c-16.365-11.458-27.623-19.343-29.325-20.535c-4.233-2.963-12.785-1.763-19.443-0.153c-2.41,0.855-4.893,1.575-7.448,2.14
			c-1.085,0.36-1.727,0.6-1.727,0.6l0.177-0.288c-0.382,0.075-0.758,0.165-1.142,0.233c-34.09,6.013-66.6-16.75-72.61-50.84
			c-0.217-1.227-0.385-2.453-0.527-3.675l50.685,13.167l19.865-20.267l-7.493-26.685l-49.498-12.86
			c9.178-11.34,22.315-19.557,37.81-22.29c32.182-5.675,62.947,14.305,71.342,45.245l0.095-0.153c0,0,0.027,0.318,0.095,0.885
			c0.413,1.595,0.785,3.213,1.075,4.865c0.245,1.395,0.427,2.785,0.577,4.173c1.533,6.185,4.295,13.582,9.092,16.942
			C326.286,238.11,338.408,246.597,355.763,258.75L355.763,258.75z M257.846,462.922c1.158,0.81,2.22,1.747,3.183,2.707
			l-10.915,7.773l3.82-12.69C255.258,461.322,256.601,462.05,257.846,462.922L257.846,462.922z M267.503,461.02
			c-1.437-1.692-3.242-3.52-5.305-4.965c-1.9-1.33-4.028-2.312-5.953-3.025l13.57-45.078l0.277,0.195
			c0.073-0.303,0.178-0.59,0.35-0.835c2.233-3.193,12.2-0.068,22.26,6.975c10.06,7.045,16.405,15.343,14.17,18.533
			c-0.173,0.247-0.405,0.442-0.667,0.615l0.017,0.013L267.503,461.02L267.503,461.02z M298.223,406.405
			c-1.455-1.017-2.9-1.942-4.328-2.79l147.92-211.26c1.427,0.848,2.877,1.773,4.333,2.792c1.552,1.087,3.007,2.205,4.365,3.33
			L302.588,409.735C301.231,408.61,299.776,407.492,298.223,406.405L298.223,406.405z M307.006,413.79l147.925-211.26
			c4.073,4.187,6.307,8.057,5.73,10.347l-147.925,211.26C313.318,421.847,311.081,417.98,307.006,413.79L307.006,413.79z
			 M378.268,435.905l9.332-1.645l-1.645-9.335l9.335-1.645l1.645,9.335l9.335-1.647l1.645,9.335l9.335-1.645l0.023,0.125h0.005
			l7.962,45.16l-15.557,2.743l-2.413-13.675c-0.758-4.295-4.855-7.165-9.15-6.408c-4.295,0.758-7.165,4.855-6.407,9.153
			l2.412,13.675l-15.56,2.743l-7.962-45.16l-0.022-0.125l9.335-1.648L378.268,435.905L378.268,435.905z"/>
	</defs>
	<clipPath id="SVGID_14_">
		<use xlink:href="#SVGID_13_"  overflow="visible"/>
	</clipPath>
	<g clip-path="url(#SVGID_14_)">
		
			<image overflow="visible" width="1300" height="670" xlink:href="16599D160763BAFF.jpg"  transform="matrix(1 0 0 1 -33.0267 -22.2126)">
		</image>
	</g>
</g>
<g>
	<defs>
		<path id="SVGID_15_" d="M649.523,343.037l-0.213-5.955C650.543,340.17,649.523,343.037,649.523,343.037L649.523,343.037z
			 M620.618,330.252c-150.85,17.825-259.99,31.787-259.99,31.787v-114c0,0,105.473-12.465,256.178-30.273
			c27.855-3.292,28.717,12.805,28.717,12.805l3.788,106.51C647.548,332.675,641.183,327.822,620.618,330.252L620.618,330.252z
			 M130.361,387.077c-26.573,3.14-29.447,12.83-29.3,17.305L82.453,294.937c0,0-6.135-15.475,28.72-19.593
			c150.705-17.81,281.175-31.055,281.175-31.055v114C392.348,358.29,281.211,369.25,130.361,387.077L130.361,387.077z
			 M101.061,404.382l0.393,2.31C101.453,406.692,101.108,405.795,101.061,404.382L101.061,404.382z"/>
	</defs>
	<clipPath id="SVGID_16_">
		<use xlink:href="#SVGID_15_"  overflow="visible"/>
	</clipPath>
	<g clip-path="url(#SVGID_16_)">
		
			<image overflow="visible" width="1300" height="670" xlink:href="16599D160763BAF4.jpg"  transform="matrix(1 0 0 1 -33.0267 -22.2126)">
		</image>
	</g>
</g>
<g>
	<defs>
		<path id="SVGID_17_" d="M609.328,363.077c-7.16,31.195-20.137,60.367-38.575,86.7c-18.437,26.332-41.41,48.503-68.277,65.902
			c-27.822,18.018-58.615,30.095-91.518,35.898c-32.907,5.802-65.97,4.983-98.278-2.432c-31.197-7.16-60.367-20.138-86.7-38.575
			c-26.33-18.44-48.502-41.413-65.902-68.278c-18.017-27.822-30.095-58.615-35.898-91.517c-5.8-32.905-4.982-65.973,2.433-98.277
			c7.16-31.197,20.14-60.367,38.575-86.7c18.44-26.33,41.41-48.502,68.277-65.902c27.823-18.018,58.613-30.095,91.518-35.898
			s65.97-4.985,98.278,2.433c31.198,7.16,60.37,20.14,86.7,38.575c26.332,18.44,48.505,41.41,65.902,68.277
			c18.017,27.822,30.095,58.612,35.898,91.52C617.563,297.705,616.743,330.77,609.328,363.077L609.328,363.077z M597.646,267.29
			C575.281,140.445,454.321,55.747,327.473,78.112C200.628,100.48,115.931,221.44,138.298,348.285
			c22.365,126.845,143.325,211.542,270.17,189.177C535.316,515.095,620.011,394.132,597.646,267.29L597.646,267.29z
			 M406.453,524.037c-119.462,21.065-233.385-58.705-254.45-178.17c-21.065-119.462,58.705-233.385,178.167-254.45
			c119.465-21.065,233.387,58.705,254.452,178.167C605.688,389.05,525.918,502.972,406.453,524.037L406.453,524.037z"/>
	</defs>
	<defs>
		<path id="SVGID_18_" d="M299.708,304.902l-0.888,0.997c-1.237-0.515-2.512-0.935-3.827-1.253l-0.06-0.065
			c-1.235-1.332-2.905-1.98-5.11-1.98c-0.49,0-1.01,0.032-1.548,0.097c-1.418,0.17-2.615,0.46-3.52,0.83
			c-1.305-0.24-1.878-0.525-2.073-0.645c0.03-0.157,0.123-0.47,0.405-0.98c0.52-0.95,2.458-1.71,5.188-2.04
			c0.537-0.065,1.057-0.097,1.548-0.097c2.205,0,3.875,0.647,5.11,1.98l0.335,0.362l2.242,2.42l2.198-2.46l7.03-7.88v0.063v2.775
			L299.708,304.902L299.708,304.902z M375.946,312.622v-2.835l17.933-2.162v2.835L375.946,312.622L375.946,312.622z
			 M289.986,323.432c-0.03,0.055-0.1,0.16-0.233,0.292c-0.522-0.29-1.798-0.74-4.66-0.74c-0.193,0-0.388,0.003-0.617,0.007h-0.325
			c-3.837,0-7.46-0.675-10.798-2.003l-0.51-0.547l-0.217,0.242c-0.325-0.14-0.652-0.278-0.973-0.43
			c-3.225-1.545-7.07-5.07-7.07-13.082c0-0.398,0.04-0.785,0.062-1.175c0.495,6.845,4.015,9.987,7.008,11.422
			c3.795,1.818,8,2.737,12.498,2.737h0.325c0.23-0.005,0.425-0.008,0.617-0.008c4.187,0,4.98,0.965,4.985,0.975
			C290.408,321.647,290.648,322.217,289.986,323.432L289.986,323.432z M485.191,289.767c-0.38-7.95-3.9-9.102-7.69-9.102
			c-0.663,0-1.378,0.045-2.128,0.135l-6.395,0.772v-2.835l6.395-0.773c0.75-0.09,1.465-0.135,2.128-0.135
			c4.002,0,7.71,1.27,7.727,10.493C485.228,288.82,485.213,289.3,485.191,289.767L485.191,289.767z M527.403,285.23l-2.828,2.73
			l2.612-6.845l2.545,6.222L527.403,285.23L527.403,285.23z M434.241,288.99c-0.22-0.767-0.608-1.477-1.18-2.065
			c-0.8-0.82-1.855-1.31-2.82-1.31c-0.07,0-0.138,0.003-0.207,0.008l-8.41,1.015v-2.835l8.41-1.015
			c0.07-0.005,0.138-0.008,0.207-0.008c0.965,0,2.02,0.49,2.82,1.31c0.898,0.917,1.39,2.128,1.39,3.407
			C434.451,287.997,434.373,288.497,434.241,288.99L434.241,288.99z M442.848,307.542l-1.16-1.89c5.475-4.15,8.62-10.35,9.02-17.837
			c0.018,0.395,0.048,0.78,0.048,1.185C450.756,296.665,447.978,303.1,442.848,307.542L442.848,307.542z M247.138,311.57
			c-0.22-0.765-0.607-1.475-1.177-2.06c-0.802-0.823-1.858-1.312-2.823-1.312c-0.07,0-0.138,0.002-0.207,0.007l-8.408,1.015v-2.835
			l8.408-1.015c0.07-0.005,0.138-0.008,0.207-0.008c0.965,0,2.02,0.49,2.823,1.313c0.895,0.918,1.39,2.125,1.39,3.405
			C247.351,310.58,247.271,311.08,247.138,311.57L247.138,311.57z M193.323,342.055l-6.155,0.742v-2.835l6.155-0.742
			c13.68-1.65,22.332-10.573,22.92-23.405c0.025,0.477,0.057,0.952,0.057,1.445C216.301,330.845,207.496,340.345,193.323,342.055
			L193.323,342.055z M341.086,296.325v-2.835l14.093-1.747v2.835L341.086,296.325L341.086,296.325z M375.946,292.117v-2.835
			l24.43-3.072v2.835L375.946,292.117L375.946,292.117z M361.506,335.412v-2.835l39.185-4.517v2.835L361.506,335.412
			L361.506,335.412z M309.636,300.142v-2.835l14.22-1.738v2.835L309.636,300.142L309.636,300.142z M326.216,339.765v-2.835
			l12.23-1.355v2.835L326.216,339.765L326.216,339.765z M407.326,330.045v-2.835l11.658-1.357v2.835L407.326,330.045
			L407.326,330.045z M557.751,311.87v-2.835l11.8-1.355v2.835L557.751,311.87L557.751,311.87z M541.588,313.89l-2.275,0.28
			l-0.87-2.12l-2.212-5.388l-18.545,2.237l-2.442,6.537l-0.64,1.71l-1.812,0.217l-11.987,1.447l-4.935,0.595l1.135-2.97l3.8-0.46
			l11.987-1.448l1.812-0.217l0.64-1.71l2.442-6.538l18.545-2.237l2.212,5.39l0.87,2.118l2.275-0.28l13.24-1.623l1.42,2.66
			l-2.705,0.318L541.588,313.89L541.588,313.89z M598.938,306.907v-2.835l11.728-1.355v2.835L598.938,306.907L598.938,306.907z
			 M584.361,299.62l-2.355-2.33l-9.815-9.72v-2.835l9.815,9.72l2.355,2.33l2.085-2.57l9.608-11.838v2.835l-9.608,11.837
			L584.361,299.62L584.361,299.62z M475.373,321.882l-20.98,2.445v-2.835l20.98-2.445c17.39-2.1,26.713-12.845,27.052-31.063
			c0.02,0.59,0.033,1.193,0.033,1.813C502.458,308.647,493.093,319.742,475.373,321.882L475.373,321.882z M301.678,337.737
			c-4.312,3.91-9.41,6.245-15.147,6.938c-1.878,0.225-3.68,0.343-5.362,0.343c-2.993,0-5.688-0.365-8.015-1.083
			c-3.645-1.12-6.83-2.865-9.47-5.185l-0.338-0.3l-2.262-1.995l1.415-1.588l0.847,0.748l0.338,0.3c2.64,2.32,5.825,4.065,9.47,5.185
			c2.327,0.717,5.022,1.082,8.015,1.082c1.682,0,3.485-0.117,5.362-0.343c5.737-0.692,10.835-3.027,15.147-6.937
			c4.197-3.803,6.455-8.1,6.772-12.785c0.037,0.547,0.063,1.11,0.063,1.703C308.513,328.947,306.213,333.63,301.678,337.737
			L301.678,337.737z M447.026,325.302l-12.88,1.555l-1.898,0.23l-1.01-1.622l-7-11.245l-2.615,0.317v-2.835l2.615-0.318l7,11.245
			l1.01,1.622l1.898-0.23l12.88-1.555l3.025-0.365l1.623,2.64L447.026,325.302L447.026,325.302z M166.316,359.15l-11.955,1.477
			l-2.275,0.282l-0.87-2.12l-2.212-5.387l-18.548,2.237l-2.44,6.535l-0.64,1.71l-1.812,0.22l-11.99,1.448l-4.932,0.595l1.135-2.972
			l3.797-0.457l11.99-1.448l1.812-0.22l0.64-1.71l2.44-6.535l18.548-2.24l2.212,5.39l0.87,2.12l2.275-0.283l11.955-1.478
			l1.672-0.222l0.95,2.733L166.316,359.15L166.316,359.15z M140.076,332.407l-2.728,2.292l2.613-6.845l2.543,6.222L140.076,332.407
			L140.076,332.407z M199.786,317.25c-0.22-0.767-0.607-1.477-1.18-2.065c-0.802-0.82-1.857-1.31-2.822-1.31
			c-0.07,0-0.138,0.003-0.205,0.008l-8.41,1.018v-2.835l8.41-1.017c0.068-0.005,0.135-0.007,0.205-0.007
			c0.965,0,2.02,0.49,2.822,1.31c0.898,0.92,1.39,2.13,1.39,3.407C199.996,316.257,199.918,316.757,199.786,317.25L199.786,317.25z
			 M220.223,352.627v-2.835l11.658-1.355v2.835L220.223,352.627L220.223,352.627z M240.678,336.377l-6.155,0.742v-2.835l6.155-0.742
			c13.68-1.65,22.333-10.572,22.92-23.408c0.022,0.48,0.055,0.953,0.055,1.448C263.653,325.167,254.851,334.667,240.678,336.377
			L240.678,336.377z M172.531,358l-0.11-2.677l12.108-1.208v2.835L172.531,358L172.531,358z"/>
	</defs>
	<clipPath id="SVGID_19_">
		<use xlink:href="#SVGID_17_"  overflow="visible"/>
	</clipPath>
	<clipPath id="SVGID_20_" clip-path="url(#SVGID_19_)">
		<use xlink:href="#SVGID_18_"  overflow="visible"/>
	</clipPath>
	<g clip-path="url(#SVGID_20_)">
		
			<image overflow="visible" width="1300" height="670" xlink:href="16599D160763BAF5.jpg"  transform="matrix(1 0 0 1 -33.0267 -22.2126)">
		</image>
	</g>
</g>
<g>
	<defs>
		<path id="SVGID_21_" d="M534.853,419.46c-9.16,13.08-27.195,16.26-40.28,7.102c-0.308-0.215-0.603-0.435-0.898-0.662l-0.012,0.025
			c0,0-55.968-39.188-108.785-76.17l11.23-16.04l75.038,52.547c4.212,2.94,10.022,1.92,12.967-2.288
			c2.945-4.22,1.927-10.023-2.285-12.97l-75.04-52.543l11.267-16.095c53.055,37.15,108.783,76.173,108.783,76.173l-0.015,0.022
			c0.308,0.198,0.623,0.398,0.927,0.618C540.833,388.34,544.013,406.375,534.853,419.46L534.853,419.46z M527.923,399.605
			c-1.592-9.033-10.207-15.065-19.242-13.473c-9.033,1.593-15.065,10.208-13.473,19.243c1.593,9.032,10.208,15.065,19.242,13.472
			C523.483,417.255,529.516,408.64,527.923,399.605L527.923,399.605z M494.503,158.26l-4.895,6.993l-0.025-0.017
			c0.687-3.055-4.41-9.35-12.15-14.77c-7.737-5.42-15.395-8.052-18.032-6.365l-0.243-0.17l5.35-7.642l0.11,0.077
			c1.965-2.555,10.22,0.06,18.557,5.898c8.415,5.893,13.722,12.833,11.853,15.502C494.891,157.96,494.708,158.12,494.503,158.26
			L494.503,158.26z M488.186,173.282l0.14,0.098l-0.205,0.29c-0.072,0.285-0.177,0.555-0.34,0.788s-0.38,0.422-0.623,0.59
			l-20.91,29.86l-1.255-0.898c-1.402-4.102-6.545-10.115-13.707-15.552c-8.315-6.315-16.652-9.805-20.525-8.905l-0.677-0.483
			l21.835-31.185l0.4,0.28c3.378-1.695,12.287,1.455,21.293,7.76C482.616,162.232,488.623,169.532,488.186,173.282L488.186,173.282z
			 M287.983,400.542c-5.868-2.587-10.573-3.182-12.02-1.115c-0.002,0.005-0.005,0.013-0.008,0.018l-0.122-0.085l147.627-210.84
			c0.135-0.03,0.28-0.137,0.428-0.35c1.447-2.067,6.153-1.47,12.017,1.115L287.983,400.542L287.983,400.542z M354.851,195.257
			l-7.247-5.078l-5.078,7.25l-6.81-4.77l5.075-7.25l-7.25-5.075l4.77-6.812l7.25,5.075l5.075-7.247l6.812,4.77l-5.075,7.247
			l7.247,5.075L354.851,195.257L354.851,195.257z M349.463,164.705l-7.247-5.077l-5.078,7.25l-6.81-4.77l5.075-7.25l-7.25-5.075
			l4.77-6.813l7.25,5.075l5.075-7.248l6.813,4.77l-5.075,7.248l7.25,5.077L349.463,164.705L349.463,164.705z M344.028,133.875
			l-7.25-5.075l-5.075,7.25l-6.812-4.77l5.075-7.25l-7.247-5.075l4.77-6.813l7.25,5.075l5.075-7.25l6.813,4.772l-5.075,7.248
			l7.247,5.077L344.028,133.875L344.028,133.875z M355.763,258.75l-11.272,16.095l-21.645-15.155
			c-4.21-2.953-10.012-1.925-12.965,2.285c-2.94,4.208-1.922,10.013,2.29,12.963l21.645,15.157l-11.232,16.04
			c-16.365-11.458-27.623-19.343-29.325-20.535c-4.233-2.963-12.785-1.763-19.443-0.153c-2.41,0.855-4.893,1.575-7.448,2.14
			c-1.085,0.36-1.727,0.6-1.727,0.6l0.177-0.288c-0.382,0.075-0.758,0.165-1.142,0.233c-34.09,6.013-66.6-16.75-72.61-50.84
			c-0.217-1.227-0.385-2.453-0.527-3.675l50.685,13.167l19.865-20.267l-7.493-26.685l-49.498-12.86
			c9.178-11.34,22.315-19.557,37.81-22.29c32.182-5.675,62.947,14.305,71.342,45.245l0.095-0.153c0,0,0.027,0.318,0.095,0.885
			c0.413,1.595,0.785,3.213,1.075,4.865c0.245,1.395,0.427,2.785,0.577,4.173c1.533,6.185,4.295,13.582,9.092,16.942
			C326.286,238.11,338.408,246.597,355.763,258.75L355.763,258.75z M257.846,462.922c1.158,0.81,2.22,1.747,3.183,2.707
			l-10.915,7.773l3.82-12.69C255.258,461.322,256.601,462.05,257.846,462.922L257.846,462.922z M267.503,461.02
			c-1.437-1.692-3.242-3.52-5.305-4.965c-1.9-1.33-4.028-2.312-5.953-3.025l13.57-45.078l0.277,0.195
			c0.073-0.303,0.178-0.59,0.35-0.835c2.233-3.193,12.2-0.068,22.26,6.975c10.06,7.045,16.405,15.343,14.17,18.533
			c-0.173,0.247-0.405,0.442-0.667,0.615l0.017,0.013L267.503,461.02L267.503,461.02z M298.223,406.405
			c-1.455-1.017-2.9-1.942-4.328-2.79l147.92-211.26c1.427,0.848,2.877,1.773,4.333,2.792c1.552,1.087,3.007,2.205,4.365,3.33
			L302.588,409.735C301.231,408.61,299.776,407.492,298.223,406.405L298.223,406.405z M307.006,413.79l147.925-211.26
			c4.073,4.187,6.307,8.057,5.73,10.347l-147.925,211.26C313.318,421.847,311.081,417.98,307.006,413.79L307.006,413.79z
			 M378.268,435.905l9.332-1.645l-1.645-9.335l9.335-1.645l1.645,9.335l9.335-1.647l1.645,9.335l9.335-1.645l0.023,0.125h0.005
			l7.962,45.16l-15.557,2.743l-2.413-13.675c-0.758-4.295-4.855-7.165-9.15-6.408c-4.295,0.758-7.165,4.855-6.407,9.153
			l2.412,13.675l-15.56,2.743l-7.962-45.16l-0.022-0.125l9.335-1.648L378.268,435.905L378.268,435.905z"/>
	</defs>
	<defs>
		<path id="SVGID_22_" d="M299.708,304.902l-0.888,0.997c-1.237-0.515-2.512-0.935-3.827-1.253l-0.06-0.065
			c-1.235-1.332-2.905-1.98-5.11-1.98c-0.49,0-1.01,0.032-1.548,0.097c-1.418,0.17-2.615,0.46-3.52,0.83
			c-1.305-0.24-1.878-0.525-2.073-0.645c0.03-0.157,0.123-0.47,0.405-0.98c0.52-0.95,2.458-1.71,5.188-2.04
			c0.537-0.065,1.057-0.097,1.548-0.097c2.205,0,3.875,0.647,5.11,1.98l0.335,0.362l2.242,2.42l2.198-2.46l7.03-7.88v0.063v2.775
			L299.708,304.902L299.708,304.902z M375.946,312.622v-2.835l17.933-2.162v2.835L375.946,312.622L375.946,312.622z
			 M289.986,323.432c-0.03,0.055-0.1,0.16-0.233,0.292c-0.522-0.29-1.798-0.74-4.66-0.74c-0.193,0-0.388,0.003-0.617,0.007h-0.325
			c-3.837,0-7.46-0.675-10.798-2.003l-0.51-0.547l-0.217,0.242c-0.325-0.14-0.652-0.278-0.973-0.43
			c-3.225-1.545-7.07-5.07-7.07-13.082c0-0.398,0.04-0.785,0.062-1.175c0.495,6.845,4.015,9.987,7.008,11.422
			c3.795,1.818,8,2.737,12.498,2.737h0.325c0.23-0.005,0.425-0.008,0.617-0.008c4.187,0,4.98,0.965,4.985,0.975
			C290.408,321.647,290.648,322.217,289.986,323.432L289.986,323.432z M485.191,289.767c-0.38-7.95-3.9-9.102-7.69-9.102
			c-0.663,0-1.378,0.045-2.128,0.135l-6.395,0.772v-2.835l6.395-0.773c0.75-0.09,1.465-0.135,2.128-0.135
			c4.002,0,7.71,1.27,7.727,10.493C485.228,288.82,485.213,289.3,485.191,289.767L485.191,289.767z M527.403,285.23l-2.828,2.73
			l2.612-6.845l2.545,6.222L527.403,285.23L527.403,285.23z M434.241,288.99c-0.22-0.767-0.608-1.477-1.18-2.065
			c-0.8-0.82-1.855-1.31-2.82-1.31c-0.07,0-0.138,0.003-0.207,0.008l-8.41,1.015v-2.835l8.41-1.015
			c0.07-0.005,0.138-0.008,0.207-0.008c0.965,0,2.02,0.49,2.82,1.31c0.898,0.917,1.39,2.128,1.39,3.407
			C434.451,287.997,434.373,288.497,434.241,288.99L434.241,288.99z M442.848,307.542l-1.16-1.89c5.475-4.15,8.62-10.35,9.02-17.837
			c0.018,0.395,0.048,0.78,0.048,1.185C450.756,296.665,447.978,303.1,442.848,307.542L442.848,307.542z M247.138,311.57
			c-0.22-0.765-0.607-1.475-1.177-2.06c-0.802-0.823-1.858-1.312-2.823-1.312c-0.07,0-0.138,0.002-0.207,0.007l-8.408,1.015v-2.835
			l8.408-1.015c0.07-0.005,0.138-0.008,0.207-0.008c0.965,0,2.02,0.49,2.823,1.313c0.895,0.918,1.39,2.125,1.39,3.405
			C247.351,310.58,247.271,311.08,247.138,311.57L247.138,311.57z M193.323,342.055l-6.155,0.742v-2.835l6.155-0.742
			c13.68-1.65,22.332-10.573,22.92-23.405c0.025,0.477,0.057,0.952,0.057,1.445C216.301,330.845,207.496,340.345,193.323,342.055
			L193.323,342.055z M341.086,296.325v-2.835l14.093-1.747v2.835L341.086,296.325L341.086,296.325z M375.946,292.117v-2.835
			l24.43-3.072v2.835L375.946,292.117L375.946,292.117z M361.506,335.412v-2.835l39.185-4.517v2.835L361.506,335.412
			L361.506,335.412z M309.636,300.142v-2.835l14.22-1.738v2.835L309.636,300.142L309.636,300.142z M326.216,339.765v-2.835
			l12.23-1.355v2.835L326.216,339.765L326.216,339.765z M407.326,330.045v-2.835l11.658-1.357v2.835L407.326,330.045
			L407.326,330.045z M557.751,311.87v-2.835l11.8-1.355v2.835L557.751,311.87L557.751,311.87z M541.588,313.89l-2.275,0.28
			l-0.87-2.12l-2.212-5.388l-18.545,2.237l-2.442,6.537l-0.64,1.71l-1.812,0.217l-11.987,1.447l-4.935,0.595l1.135-2.97l3.8-0.46
			l11.987-1.448l1.812-0.217l0.64-1.71l2.442-6.538l18.545-2.237l2.212,5.39l0.87,2.118l2.275-0.28l13.24-1.623l1.42,2.66
			l-2.705,0.318L541.588,313.89L541.588,313.89z M598.938,306.907v-2.835l11.728-1.355v2.835L598.938,306.907L598.938,306.907z
			 M584.361,299.62l-2.355-2.33l-9.815-9.72v-2.835l9.815,9.72l2.355,2.33l2.085-2.57l9.608-11.838v2.835l-9.608,11.837
			L584.361,299.62L584.361,299.62z M475.373,321.882l-20.98,2.445v-2.835l20.98-2.445c17.39-2.1,26.713-12.845,27.052-31.063
			c0.02,0.59,0.033,1.193,0.033,1.813C502.458,308.647,493.093,319.742,475.373,321.882L475.373,321.882z M301.678,337.737
			c-4.312,3.91-9.41,6.245-15.147,6.938c-1.878,0.225-3.68,0.343-5.362,0.343c-2.993,0-5.688-0.365-8.015-1.083
			c-3.645-1.12-6.83-2.865-9.47-5.185l-0.338-0.3l-2.262-1.995l1.415-1.588l0.847,0.748l0.338,0.3c2.64,2.32,5.825,4.065,9.47,5.185
			c2.327,0.717,5.022,1.082,8.015,1.082c1.682,0,3.485-0.117,5.362-0.343c5.737-0.692,10.835-3.027,15.147-6.937
			c4.197-3.803,6.455-8.1,6.772-12.785c0.037,0.547,0.063,1.11,0.063,1.703C308.513,328.947,306.213,333.63,301.678,337.737
			L301.678,337.737z M447.026,325.302l-12.88,1.555l-1.898,0.23l-1.01-1.622l-7-11.245l-2.615,0.317v-2.835l2.615-0.318l7,11.245
			l1.01,1.622l1.898-0.23l12.88-1.555l3.025-0.365l1.623,2.64L447.026,325.302L447.026,325.302z M166.316,359.15l-11.955,1.477
			l-2.275,0.282l-0.87-2.12l-2.212-5.387l-18.548,2.237l-2.44,6.535l-0.64,1.71l-1.812,0.22l-11.99,1.448l-4.932,0.595l1.135-2.972
			l3.797-0.457l11.99-1.448l1.812-0.22l0.64-1.71l2.44-6.535l18.548-2.24l2.212,5.39l0.87,2.12l2.275-0.283l11.955-1.478
			l1.672-0.222l0.95,2.733L166.316,359.15L166.316,359.15z M140.076,332.407l-2.728,2.292l2.613-6.845l2.543,6.222L140.076,332.407
			L140.076,332.407z M199.786,317.25c-0.22-0.767-0.607-1.477-1.18-2.065c-0.802-0.82-1.857-1.31-2.822-1.31
			c-0.07,0-0.138,0.003-0.205,0.008l-8.41,1.018v-2.835l8.41-1.017c0.068-0.005,0.135-0.007,0.205-0.007
			c0.965,0,2.02,0.49,2.822,1.31c0.898,0.92,1.39,2.13,1.39,3.407C199.996,316.257,199.918,316.757,199.786,317.25L199.786,317.25z
			 M220.223,352.627v-2.835l11.658-1.355v2.835L220.223,352.627L220.223,352.627z M240.678,336.377l-6.155,0.742v-2.835l6.155-0.742
			c13.68-1.65,22.333-10.572,22.92-23.408c0.022,0.48,0.055,0.953,0.055,1.448C263.653,325.167,254.851,334.667,240.678,336.377
			L240.678,336.377z M172.531,358l-0.11-2.677l12.108-1.208v2.835L172.531,358L172.531,358z"/>
	</defs>
	<clipPath id="SVGID_23_">
		<use xlink:href="#SVGID_21_"  overflow="visible"/>
	</clipPath>
	<clipPath id="SVGID_24_" clip-path="url(#SVGID_23_)">
		<use xlink:href="#SVGID_22_"  overflow="visible"/>
	</clipPath>
	<g clip-path="url(#SVGID_24_)">
		
			<image overflow="visible" width="1300" height="670" xlink:href="3AF3B42F116A050F.jpg"  transform="matrix(1 0 0 1 -33.0267 -22.2126)">
		</image>
	</g>
</g>
<g>
	<defs>
		<path id="SVGID_25_" d="M649.523,343.037l-0.213-5.955C650.543,340.17,649.523,343.037,649.523,343.037L649.523,343.037z
			 M620.618,330.252c-150.85,17.825-259.99,31.787-259.99,31.787v-114c0,0,105.473-12.465,256.178-30.273
			c27.855-3.292,28.717,12.805,28.717,12.805l3.788,106.51C647.548,332.675,641.183,327.822,620.618,330.252L620.618,330.252z
			 M130.361,387.077c-26.573,3.14-29.447,12.83-29.3,17.305L82.453,294.937c0,0-6.135-15.475,28.72-19.593
			c150.705-17.81,281.175-31.055,281.175-31.055v114C392.348,358.29,281.211,369.25,130.361,387.077L130.361,387.077z
			 M101.061,404.382l0.393,2.31C101.453,406.692,101.108,405.795,101.061,404.382L101.061,404.382z"/>
	</defs>
	<defs>
		<path id="SVGID_26_" d="M299.708,304.902l-0.888,0.997c-1.237-0.515-2.512-0.935-3.827-1.253l-0.06-0.065
			c-1.235-1.332-2.905-1.98-5.11-1.98c-0.49,0-1.01,0.032-1.548,0.097c-1.418,0.17-2.615,0.46-3.52,0.83
			c-1.305-0.24-1.878-0.525-2.073-0.645c0.03-0.157,0.123-0.47,0.405-0.98c0.52-0.95,2.458-1.71,5.188-2.04
			c0.537-0.065,1.057-0.097,1.548-0.097c2.205,0,3.875,0.647,5.11,1.98l0.335,0.362l2.242,2.42l2.198-2.46l7.03-7.88v0.063v2.775
			L299.708,304.902L299.708,304.902z M375.946,312.622v-2.835l17.933-2.162v2.835L375.946,312.622L375.946,312.622z
			 M289.986,323.432c-0.03,0.055-0.1,0.16-0.233,0.292c-0.522-0.29-1.798-0.74-4.66-0.74c-0.193,0-0.388,0.003-0.617,0.007h-0.325
			c-3.837,0-7.46-0.675-10.798-2.003l-0.51-0.547l-0.217,0.242c-0.325-0.14-0.652-0.278-0.973-0.43
			c-3.225-1.545-7.07-5.07-7.07-13.082c0-0.398,0.04-0.785,0.062-1.175c0.495,6.845,4.015,9.987,7.008,11.422
			c3.795,1.818,8,2.737,12.498,2.737h0.325c0.23-0.005,0.425-0.008,0.617-0.008c4.187,0,4.98,0.965,4.985,0.975
			C290.408,321.647,290.648,322.217,289.986,323.432L289.986,323.432z M485.191,289.767c-0.38-7.95-3.9-9.102-7.69-9.102
			c-0.663,0-1.378,0.045-2.128,0.135l-6.395,0.772v-2.835l6.395-0.773c0.75-0.09,1.465-0.135,2.128-0.135
			c4.002,0,7.71,1.27,7.727,10.493C485.228,288.82,485.213,289.3,485.191,289.767L485.191,289.767z M527.403,285.23l-2.828,2.73
			l2.612-6.845l2.545,6.222L527.403,285.23L527.403,285.23z M434.241,288.99c-0.22-0.767-0.608-1.477-1.18-2.065
			c-0.8-0.82-1.855-1.31-2.82-1.31c-0.07,0-0.138,0.003-0.207,0.008l-8.41,1.015v-2.835l8.41-1.015
			c0.07-0.005,0.138-0.008,0.207-0.008c0.965,0,2.02,0.49,2.82,1.31c0.898,0.917,1.39,2.128,1.39,3.407
			C434.451,287.997,434.373,288.497,434.241,288.99L434.241,288.99z M442.848,307.542l-1.16-1.89c5.475-4.15,8.62-10.35,9.02-17.837
			c0.018,0.395,0.048,0.78,0.048,1.185C450.756,296.665,447.978,303.1,442.848,307.542L442.848,307.542z M247.138,311.57
			c-0.22-0.765-0.607-1.475-1.177-2.06c-0.802-0.823-1.858-1.312-2.823-1.312c-0.07,0-0.138,0.002-0.207,0.007l-8.408,1.015v-2.835
			l8.408-1.015c0.07-0.005,0.138-0.008,0.207-0.008c0.965,0,2.02,0.49,2.823,1.313c0.895,0.918,1.39,2.125,1.39,3.405
			C247.351,310.58,247.271,311.08,247.138,311.57L247.138,311.57z M193.323,342.055l-6.155,0.742v-2.835l6.155-0.742
			c13.68-1.65,22.332-10.573,22.92-23.405c0.025,0.477,0.057,0.952,0.057,1.445C216.301,330.845,207.496,340.345,193.323,342.055
			L193.323,342.055z M341.086,296.325v-2.835l14.093-1.747v2.835L341.086,296.325L341.086,296.325z M375.946,292.117v-2.835
			l24.43-3.072v2.835L375.946,292.117L375.946,292.117z M361.506,335.412v-2.835l39.185-4.517v2.835L361.506,335.412
			L361.506,335.412z M309.636,300.142v-2.835l14.22-1.738v2.835L309.636,300.142L309.636,300.142z M326.216,339.765v-2.835
			l12.23-1.355v2.835L326.216,339.765L326.216,339.765z M407.326,330.045v-2.835l11.658-1.357v2.835L407.326,330.045
			L407.326,330.045z M557.751,311.87v-2.835l11.8-1.355v2.835L557.751,311.87L557.751,311.87z M541.588,313.89l-2.275,0.28
			l-0.87-2.12l-2.212-5.388l-18.545,2.237l-2.442,6.537l-0.64,1.71l-1.812,0.217l-11.987,1.447l-4.935,0.595l1.135-2.97l3.8-0.46
			l11.987-1.448l1.812-0.217l0.64-1.71l2.442-6.538l18.545-2.237l2.212,5.39l0.87,2.118l2.275-0.28l13.24-1.623l1.42,2.66
			l-2.705,0.318L541.588,313.89L541.588,313.89z M598.938,306.907v-2.835l11.728-1.355v2.835L598.938,306.907L598.938,306.907z
			 M584.361,299.62l-2.355-2.33l-9.815-9.72v-2.835l9.815,9.72l2.355,2.33l2.085-2.57l9.608-11.838v2.835l-9.608,11.837
			L584.361,299.62L584.361,299.62z M475.373,321.882l-20.98,2.445v-2.835l20.98-2.445c17.39-2.1,26.713-12.845,27.052-31.063
			c0.02,0.59,0.033,1.193,0.033,1.813C502.458,308.647,493.093,319.742,475.373,321.882L475.373,321.882z M301.678,337.737
			c-4.312,3.91-9.41,6.245-15.147,6.938c-1.878,0.225-3.68,0.343-5.362,0.343c-2.993,0-5.688-0.365-8.015-1.083
			c-3.645-1.12-6.83-2.865-9.47-5.185l-0.338-0.3l-2.262-1.995l1.415-1.588l0.847,0.748l0.338,0.3c2.64,2.32,5.825,4.065,9.47,5.185
			c2.327,0.717,5.022,1.082,8.015,1.082c1.682,0,3.485-0.117,5.362-0.343c5.737-0.692,10.835-3.027,15.147-6.937
			c4.197-3.803,6.455-8.1,6.772-12.785c0.037,0.547,0.063,1.11,0.063,1.703C308.513,328.947,306.213,333.63,301.678,337.737
			L301.678,337.737z M447.026,325.302l-12.88,1.555l-1.898,0.23l-1.01-1.622l-7-11.245l-2.615,0.317v-2.835l2.615-0.318l7,11.245
			l1.01,1.622l1.898-0.23l12.88-1.555l3.025-0.365l1.623,2.64L447.026,325.302L447.026,325.302z M166.316,359.15l-11.955,1.477
			l-2.275,0.282l-0.87-2.12l-2.212-5.387l-18.548,2.237l-2.44,6.535l-0.64,1.71l-1.812,0.22l-11.99,1.448l-4.932,0.595l1.135-2.972
			l3.797-0.457l11.99-1.448l1.812-0.22l0.64-1.71l2.44-6.535l18.548-2.24l2.212,5.39l0.87,2.12l2.275-0.283l11.955-1.478
			l1.672-0.222l0.95,2.733L166.316,359.15L166.316,359.15z M140.076,332.407l-2.728,2.292l2.613-6.845l2.543,6.222L140.076,332.407
			L140.076,332.407z M199.786,317.25c-0.22-0.767-0.607-1.477-1.18-2.065c-0.802-0.82-1.857-1.31-2.822-1.31
			c-0.07,0-0.138,0.003-0.205,0.008l-8.41,1.018v-2.835l8.41-1.017c0.068-0.005,0.135-0.007,0.205-0.007
			c0.965,0,2.02,0.49,2.822,1.31c0.898,0.92,1.39,2.13,1.39,3.407C199.996,316.257,199.918,316.757,199.786,317.25L199.786,317.25z
			 M220.223,352.627v-2.835l11.658-1.355v2.835L220.223,352.627L220.223,352.627z M240.678,336.377l-6.155,0.742v-2.835l6.155-0.742
			c13.68-1.65,22.333-10.572,22.92-23.408c0.022,0.48,0.055,0.953,0.055,1.448C263.653,325.167,254.851,334.667,240.678,336.377
			L240.678,336.377z M172.531,358l-0.11-2.677l12.108-1.208v2.835L172.531,358L172.531,358z"/>
	</defs>
	<clipPath id="SVGID_27_">
		<use xlink:href="#SVGID_25_"  overflow="visible"/>
	</clipPath>
	<clipPath id="SVGID_28_" clip-path="url(#SVGID_27_)">
		<use xlink:href="#SVGID_26_"  overflow="visible"/>
	</clipPath>
	<g clip-path="url(#SVGID_28_)">
		
			<image overflow="visible" width="1300" height="670" xlink:href="3AF3B42F116A050D.jpg"  transform="matrix(1 0 0 1 -33.0267 -22.2126)">
		</image>
	</g>
</g>
<g>
	<defs>
		<path id="SVGID_29_" d="M153.871,353.255l-3.082-7.5l-22.625,2.73l-3.08,8.245l-11.99,1.448l20.922-54.835l10.92-1.318
			l20.89,49.752L153.871,353.255L153.871,353.255z M139.743,318.13l-7.09,18.585l13.995-1.69L139.743,318.13L139.743,318.13z
			 M192.843,334.68l-8.795,1.062v13.832l-11.23,1.355v-52.31l19.993-2.413c12.243-1.477,20.368,4.443,20.368,16.658
			C213.178,325.42,205.066,333.205,192.843,334.68L192.843,334.68z M195.156,306.502l-11.107,1.34V325.2l11.02-1.33
			c3.855-0.53,7.808-5.037,7.808-9.672C202.876,309.61,198.953,306.172,195.156,306.502L195.156,306.502z M297.013,298.15
			c-2.175-2.35-5.277-3.3-9.217-2.823c-3.907,0.47-6.417,1.673-7.46,3.573c-1.038,1.888-1.052,3.333-0.045,4.42
			c1.06,1.142,3.612,1.815,7.585,1.997c4.367-0.067,8.412,0.913,11.997,2.908c3.665,2.04,5.52,5.807,5.52,11.2
			c0,4.242-1.968,8.18-5.85,11.695c-3.845,3.485-8.385,5.565-13.493,6.183c-4.815,0.58-8.897,0.37-12.137-0.63
			c-3.238-0.995-6.05-2.533-8.365-4.568l-0.34-0.3l7.558-8.467l0.335,0.362c2.188,2.36,5.992,3.455,11.312,3.258
			c4.32-0.523,7.055-1.753,8.088-3.65c1.045-1.922,1.045-3.668,0-5.337c-1.043-1.665-3.795-2.463-8.175-2.373
			c-4.162,0.04-8.03-0.783-11.497-2.445c-3.563-1.705-5.368-5.195-5.368-10.375c0-4.682,2.033-8.742,6.04-12.057
			c3.955-3.272,8.085-5.19,12.275-5.695c4.812-0.58,8.61-0.45,11.285,0.39c2.667,0.84,5.192,2.295,7.508,4.33l0.337,0.297
			l-7.558,8.47L297.013,298.15L297.013,298.15z M337.963,289.27v41.765l-11.227,1.355v-41.765l-17.12,2.068v-10.545l45.465-5.487
			v10.545L337.963,289.27L337.963,289.27z M372.823,285.062v9.997l20.575-2.485v10.51l-20.575,2.482v10.717l27.388-3.307v10.545
			l-38.615,4.66v-52.275l38.685-4.702v10.545L372.823,285.062L372.823,285.062z M474.893,314.507l-20.265,2.447V264.61l20.265-2.445
			c16.22-1.958,24.443,5.86,24.443,23.237C499.336,302.757,491.113,312.55,474.893,314.507L474.893,314.507z M474.893,273.427
			l-9.037,1.09v29.888l9.037-1.092c8.87-1.093,13.193-6.508,13.215-16.555C488.086,276.717,483.763,272.357,474.893,273.427
			L474.893,273.427z M541.098,306.517l-3.08-7.502l-22.628,2.73l-3.08,8.247l-11.99,1.445l20.925-54.835l10.92-1.317l0.12,0.287
			l20.767,49.465L541.098,306.517L541.098,306.517z M526.973,271.39l-7.09,18.585l13.995-1.69L526.973,271.39L526.973,271.39z
			 M598.958,299.532l-0.035-27.155l-14.927,18.385l-14.925-14.783v27.16l-11.23,1.355v-52.31l4.12-0.497l22.035,22.427l22.07-27.75
			l4.12-0.497v52.31L598.958,299.532L598.958,299.532z M240.198,329.005l-8.798,1.06v13.833l-11.228,1.355v-52.31l19.99-2.412
			c12.245-1.478,20.37,4.442,20.37,16.657C260.533,319.742,252.418,327.53,240.198,329.005L240.198,329.005z M242.511,300.825
			l-11.11,1.343v17.355l11.022-1.33c3.853-0.527,7.805-5.038,7.805-9.673C250.228,303.932,246.308,300.495,242.511,300.825
			L242.511,300.825z M437.493,303.195l9.052,14.735l-12.88,1.555l-8.012-12.865l-7.153,0.862v13.832l-11.227,1.355v-52.31
			l19.993-2.413c12.242-1.477,20.367,4.443,20.367,16.658C447.633,293.205,443.823,299.565,437.493,303.195L437.493,303.195z
			 M429.611,278.242l-11.11,1.34v17.358l11.023-1.33c3.855-0.53,7.808-5.037,7.808-9.672
			C437.331,281.347,433.411,277.912,429.611,278.242L429.611,278.242z"/>
	</defs>
	<clipPath id="SVGID_30_">
		<use xlink:href="#SVGID_29_"  overflow="visible"/>
	</clipPath>
	<g clip-path="url(#SVGID_30_)">
		
			<image overflow="visible" width="1300" height="670" xlink:href="3AF3B42F116A050B.jpg"  transform="matrix(1 0 0 1 -33.0267 -22.2126)">
		</image>
	</g>
</g>
<g>
	<defs>
		<path id="SVGID_31_" d="M394.423,417.815v-65.313c0-3.102,2.317-5.815,5.277-6.175l213.36-26.05c0.208-0.027,0.432-0.04,0.66-0.04
			c2.995,0,5.343,2.448,5.343,5.57v65.313c0,3.103-2.318,5.815-5.278,6.175l-213.36,26.05c-0.207,0.027-0.432,0.04-0.66,0.04
			C396.771,423.385,394.423,420.937,394.423,417.815"/>
	</defs>
	<clipPath id="SVGID_32_">
		<use xlink:href="#SVGID_31_"  overflow="visible"/>
	</clipPath>
	<g clip-path="url(#SVGID_32_)">
		
			<image overflow="visible" width="1300" height="670" xlink:href="3AF3B42F116A0505.jpg"  transform="matrix(1 0 0 1 -33.0267 -22.2126)">
		</image>
	</g>
</g>
<g>
	<defs>
		<path id="SVGID_33_" d="M400.063,349.305l213.36-26.05c1.458-0.177,2.64,0.965,2.64,2.552v65.313c0,1.587-1.182,3.02-2.64,3.198
			l-213.36,26.05c-1.458,0.177-2.64-0.965-2.64-2.552v-65.313C397.423,350.915,398.606,349.482,400.063,349.305L400.063,349.305z"/>
	</defs>
	<clipPath id="SVGID_34_">
		<use xlink:href="#SVGID_33_"  overflow="visible"/>
	</clipPath>
	<g clip-path="url(#SVGID_34_)">
		
			<image overflow="visible" width="1300" height="670" xlink:href="3AF3B42F116A0507.jpg"  transform="matrix(1 0 0 1 -33.0267 -22.2126)">
		</image>
	</g>
</g>
</svg>
