<?xml version="1.0" encoding="utf-8"?>
<!-- Generator: Adobe Illustrator 17.0.1, SVG Export Plug-In . SVG Version: 6.00 Build 0)  -->
<!DOCTYPE svg PUBLIC "-//W3C//DTD SVG 1.1//EN" "http://www.w3.org/Graphics/SVG/1.1/DTD/svg11.dtd">
<svg version="1.1" id="Layer_1" xmlns="http://www.w3.org/2000/svg" xmlns:xlink="http://www.w3.org/1999/xlink" x="0px" y="0px"
	 width="235.262px" height="174.415px" viewBox="0 0 235.262 174.415" enable-background="new 0 0 235.262 174.415"
	 xml:space="preserve">
<rect display="none" fill-rule="evenodd" clip-rule="evenodd" fill="#46483E" width="235.262" height="174.415"/>
<g>
	<path fill-rule="evenodd" clip-rule="evenodd" fill="#FFFFFF" d="M59.155,82.008c0-0.542-0.285-1.04-0.753-1.309l-12.469-7.176
		c-0.211-0.124-0.447-0.188-0.687-0.198c-0.021,0-0.111,0-0.129,0c-0.238,0.01-0.475,0.074-0.688,0.198l-12.469,7.176
		c-0.465,0.269-0.754,0.767-0.754,1.309l0.027,19.322c0,0.269,0.14,0.519,0.376,0.65c0.231,0.139,0.517,0.139,0.748,0l7.41-4.243
		c0.469-0.278,0.754-0.77,0.754-1.307v-9.027c0-0.538,0.285-1.036,0.752-1.304l3.155-1.817c0.235-0.136,0.492-0.202,0.755-0.202
		c0.257,0,0.521,0.066,0.749,0.202l3.154,1.817c0.467,0.268,0.753,0.766,0.753,1.304v9.027c0,0.537,0.289,1.031,0.755,1.307
		l7.408,4.243c0.232,0.139,0.523,0.139,0.753,0c0.229-0.132,0.374-0.382,0.374-0.65L59.155,82.008z"/>
	<path fill-rule="evenodd" clip-rule="evenodd" fill="#FFFFFF" d="M125.735,55.446c-0.233-0.13-0.518-0.127-0.749,0.008
		c-0.23,0.135-0.372,0.382-0.372,0.649v19.135c0,0.188-0.101,0.362-0.263,0.456c-0.163,0.094-0.364,0.094-0.527,0l-3.123-1.799
		c-0.466-0.269-1.039-0.268-1.505,0.001l-12.474,7.199c-0.466,0.269-0.753,0.766-0.753,1.304v14.4c0,0.538,0.287,1.035,0.753,1.305
		l12.473,7.204c0.466,0.269,1.04,0.269,1.507,0l12.475-7.204c0.466-0.27,0.753-0.767,0.753-1.305V60.904
		c0-0.546-0.295-1.049-0.772-1.315L125.735,55.446z M124.578,92.069c0,0.134-0.072,0.259-0.188,0.326l-4.283,2.469
		c-0.116,0.067-0.26,0.067-0.376,0l-4.283-2.469c-0.117-0.067-0.188-0.191-0.188-0.326v-4.945c0-0.134,0.072-0.259,0.188-0.326
		l4.283-2.474c0.117-0.067,0.26-0.067,0.377,0l4.283,2.474c0.116,0.067,0.188,0.192,0.188,0.326V92.069z"/>
	<path fill-rule="evenodd" clip-rule="evenodd" fill="#FFFFFF" d="M170.362,86.994c0.464-0.27,0.749-0.766,0.749-1.302v-3.49
		c0-0.537-0.286-1.033-0.75-1.303l-12.394-7.196c-0.466-0.271-1.042-0.271-1.509-0.002L143.989,80.9
		c-0.466,0.269-0.753,0.766-0.753,1.304v14.396c0,0.542,0.291,1.041,0.761,1.309l12.392,7.061c0.457,0.261,1.017,0.264,1.477,0.008
		l7.495-4.166c0.238-0.132,0.386-0.382,0.387-0.653c0.002-0.271-0.143-0.523-0.378-0.658l-12.548-7.202
		c-0.234-0.134-0.378-0.384-0.378-0.653v-4.512c0-0.269,0.144-0.518,0.377-0.652l3.905-2.251c0.232-0.134,0.52-0.134,0.752,0
		l3.907,2.251c0.233,0.134,0.377,0.383,0.377,0.652v3.55c0,0.269,0.144,0.518,0.377,0.652c0.233,0.135,0.521,0.134,0.754-0.001
		L170.362,86.994z"/>
	<path fill-rule="evenodd" clip-rule="evenodd" fill="#8CC84B" d="M81.837,73.626c0.466-0.269,1.04-0.269,1.506,0l12.472,7.197
		c0.466,0.269,0.753,0.766,0.753,1.305v14.406c0,0.538-0.287,1.035-0.753,1.305l-12.472,7.203c-0.466,0.269-1.041,0.269-1.507,0
		l-12.469-7.203c-0.466-0.269-0.753-0.767-0.753-1.305V82.127c0-0.538,0.287-1.035,0.753-1.304L81.837,73.626z"/>
	<path fill="#8CC84B" d="M194.578,105.247c-0.43,0-0.857-0.112-1.233-0.33l-3.927-2.323c-0.586-0.328-0.3-0.444-0.107-0.512
		c0.782-0.271,0.941-0.334,1.775-0.808c0.087-0.049,0.202-0.03,0.292,0.022l3.017,1.791c0.109,0.061,0.264,0.061,0.364,0
		L206.52,96.3c0.109-0.062,0.18-0.188,0.18-0.318V82.409c0-0.133-0.07-0.257-0.183-0.324l-11.756-6.782
		c-0.108-0.063-0.253-0.063-0.362,0l-11.753,6.784c-0.114,0.065-0.186,0.193-0.186,0.322v13.572c0,0.13,0.072,0.253,0.185,0.314
		l3.222,1.861c1.748,0.874,2.818-0.155,2.818-1.189v-13.4c0-0.189,0.152-0.339,0.342-0.339h1.491c0.186,0,0.341,0.149,0.341,0.339
		v13.4c0,2.333-1.27,3.671-3.482,3.671c-0.68,0-1.215,0-2.709-0.736l-3.084-1.775c-0.762-0.44-1.233-1.264-1.233-2.146V82.409
		c0-0.882,0.472-1.705,1.233-2.144l11.761-6.796c0.744-0.421,1.733-0.421,2.472,0l11.76,6.796c0.762,0.44,1.235,1.262,1.235,2.144
		v13.572c0,0.882-0.474,1.702-1.235,2.146l-11.76,6.79C195.44,105.135,195.014,105.247,194.578,105.247z"/>
	<path fill="#8CC84B" d="M198.211,95.896c-5.146,0-6.225-2.362-6.225-4.344c0-0.188,0.151-0.339,0.34-0.339h1.52
		c0.17,0,0.311,0.122,0.338,0.288c0.229,1.548,0.914,2.329,4.026,2.329c2.478,0,3.532-0.561,3.532-1.875
		c0-0.758-0.299-1.32-4.149-1.697c-3.218-0.318-5.208-1.029-5.208-3.604c0-2.373,2-3.788,5.354-3.788
		c3.768,0,5.632,1.308,5.868,4.113c0.009,0.097-0.025,0.189-0.09,0.262c-0.064,0.067-0.154,0.108-0.249,0.108h-1.526
		c-0.158,0-0.298-0.112-0.33-0.266c-0.366-1.629-1.257-2.149-3.673-2.149c-2.705,0-3.02,0.942-3.02,1.648
		c0,0.855,0.371,1.104,4.023,1.588c3.614,0.478,5.331,1.154,5.331,3.694C204.074,94.429,201.938,95.896,198.211,95.896z"/>
	<g>
		<path fill="#8CC84B" d="M214.428,73.501v0.349h-0.989v2.579h-0.399V73.85h-0.986v-0.349H214.428z"/>
		<path fill="#8CC84B" d="M214.781,73.501h0.568l0.841,2.475l0.837-2.475h0.564v2.928h-0.379v-1.728
			c0-0.061,0.001-0.159,0.003-0.296c0.004-0.141,0.006-0.289,0.006-0.446l-0.837,2.47h-0.393l-0.844-2.47v0.088
			c0,0.072,0,0.182,0.005,0.33c0.003,0.146,0.007,0.254,0.007,0.324v1.728h-0.379V73.501z"/>
	</g>
	<path fill-rule="evenodd" clip-rule="evenodd" fill="#8CC84B" d="M157.029,86.32c0.089-0.052,0.2-0.052,0.289,0l2.394,1.381
		c0.089,0.052,0.145,0.147,0.145,0.251v2.764c0,0.104-0.055,0.199-0.145,0.251l-2.394,1.381c-0.089,0.052-0.2,0.052-0.289,0
		l-2.392-1.381c-0.089-0.052-0.145-0.147-0.145-0.251v-2.764c0-0.104,0.055-0.199,0.145-0.251L157.029,86.32z"/>
</g>
</svg>
